<svg width="512" height="512" viewBox="0 0 512 512" fill="none" xmlns="http://www.w3.org/2000/svg">
<path d="M437.162 447.059L373.96 483.562C352.721 495.831 329.911 501.967 307.11 501.968C284.303 501.969 261.504 495.834 240.259 483.562L96.493 400.578C90.116 396.894 85.551 390.924 83.636 383.768C81.72 376.612 82.694 369.16 86.377 362.785C94.786 348.207 107.999 337.678 123.58 333.142C139.461 328.518 156.25 330.62 170.853 339.061L211.52 362.535L85.944 145.023C80.39 135.392 78.927 124.141 81.82 113.339C84.717 102.525 91.621 93.5149 101.258 87.9659C110.868 82.4069 122.124 80.9359 132.937 83.8319C143.745 86.7259 152.762 93.6199 158.329 103.244L216.407 203.869C219.622 194.074 226.214 185.935 235.164 180.783C250.308 172.039 268.727 173.893 281.76 184.03C284.203 172.965 291.095 162.92 301.648 156.827C318.568 147.087 339.535 150.533 352.545 163.939C355.499 154.581 361.734 146.795 370.25 141.888C379.234 136.684 389.753 135.299 399.86 138C409.981 140.704 418.425 147.164 423.636 156.189L486.12 264.404C522.977 328.278 501.013 410.216 437.162 447.06V447.059ZM80.069 51.2878C120.284 28.0779 171.887 41.9009 195.106 82.1069C199.783 90.1969 203.06 98.9399 204.846 108.093C206.432 116.224 214.306 121.531 222.441 119.944C230.572 118.358 235.878 110.481 234.292 102.349C231.869 89.9259 227.423 78.0629 221.082 67.0969C189.596 12.5749 119.61 -6.17315 65.069 25.3059C10.548 56.7919 -8.20099 126.778 23.266 181.296C29.6 192.308 37.652 202.091 47.197 210.376C50.036 212.84 53.537 214.048 57.023 214.048C61.218 214.048 65.392 212.297 68.358 208.88C73.788 202.623 73.118 193.149 66.861 187.719C59.851 181.635 53.932 174.441 49.26 166.32C26.05 126.106 39.873 74.5029 80.069 51.2889V51.2878Z" fill="black"/>
</svg>
