<svg width="24" height="24" viewBox="0 0 24 24" fill="none" xmlns="http://www.w3.org/2000/svg">
<path d="M9.999 9.75C9.58478 9.75 9.249 9.41421 9.249 9C9.249 8.58579 9.58478 8.25 9.999 8.25H13.999C14.3023 8.25 14.5758 8.43273 14.6919 8.71299C14.808 8.99324 14.7438 9.31583 14.5293 9.53033L11.8097 12.25H13.999C14.4132 12.25 14.749 12.5858 14.749 13C14.749 13.4142 14.4132 13.75 13.999 13.75H9.999C9.69565 13.75 9.42217 13.5673 9.30609 13.287C9.19 13.0068 9.25417 12.6842 9.46867 12.4697L12.1883 9.75H9.999Z" fill="#1C274C"/>
<path fill-rule="evenodd" clip-rule="evenodd" d="M4.24906 9C4.24906 4.71979 7.71886 1.25 11.9991 1.25C16.2793 1.25 19.7491 4.71979 19.7491 9V9.7041C19.7491 10.401 19.9554 11.0824 20.3419 11.6622L21.4905 13.3851C22.8236 15.3848 21.8059 18.1028 19.4873 18.7351C18.7317 18.9412 17.9696 19.1155 17.2032 19.2581L17.2013 19.2632C16.4323 21.3151 14.377 22.75 11.999 22.75C9.62101 22.75 7.56569 21.3151 6.7967 19.2632L6.7948 19.2581C6.0284 19.1155 5.2664 18.9412 4.51079 18.7351C2.1922 18.1028 1.17449 15.3848 2.50759 13.3851L3.65619 11.6622C4.04277 11.0824 4.24906 10.401 4.24906 9.7041V9ZM8.62251 19.5369C9.33347 20.5585 10.57 21.25 11.999 21.25C13.428 21.25 14.6645 20.5585 15.3755 19.537C13.1325 19.805 10.8655 19.8049 8.62251 19.5369ZM11.9991 2.75C8.54728 2.75 5.74906 5.54822 5.74906 9V9.7041C5.74906 10.6972 5.45512 11.668 4.90427 12.4943L3.75566 14.2172C2.99049 15.3649 3.57464 16.925 4.90547 17.288C9.54972 18.5546 14.4484 18.5546 19.0927 17.288C20.4235 16.925 21.0076 15.3649 20.2425 14.2172L19.0939 12.4943C18.543 11.668 18.2491 10.6972 18.2491 9.7041V9C18.2491 5.54822 15.4508 2.75 11.9991 2.75Z" fill="#1C274C"/>
</svg>
