<svg width="319" height="319" viewBox="0 0 319 319" fill="none" xmlns="http://www.w3.org/2000/svg">
<path d="M252.238 0.00195312H21.9375V49.352H43.8708V296.102C43.8597 301.551 45.8827 306.809 49.5439 310.845C53.2051 314.882 58.2409 317.407 63.6657 317.926C64.3785 317.98 65.1462 318.035 65.859 318.035H274.171V21.9353C274.171 16.1182 271.86 10.5394 267.747 6.42608C263.633 2.31278 258.055 0.00195313 252.238 0.00195312Z" fill="#B0CCF9"/>
<path d="M43.8698 21.9353C43.8701 18.8731 43.2291 15.8447 41.9882 13.0452C40.7473 10.2457 38.9339 7.73703 36.6648 5.68073C34.3957 3.62444 31.7212 2.06608 28.8134 1.10596C25.9055 0.145847 22.8289 -0.194742 19.7815 0.106121C14.2565 0.793872 9.18059 3.4996 5.52967 7.70317C1.87874 11.9067 -0.0895596 17.3115 0.00313078 22.8784V43.8686C0.00313078 45.3229 0.580837 46.7176 1.60916 47.7459C2.63749 48.7742 4.03219 49.3519 5.48647 49.3519H43.8698V21.9353Z" fill="#5B90F3"/>
<path d="M65.8047 318.035H296.105C301.922 318.035 307.501 315.725 311.614 311.611C315.727 307.498 318.038 301.919 318.038 296.102V268.685H87.738V296.102C87.738 301.919 85.4272 307.498 81.3139 311.611C77.2006 315.725 71.6218 318.035 65.8047 318.035Z" fill="#5B90F3"/>
</svg>
