<svg width="329" height="362" viewBox="0 0 329 362" fill="none" xmlns="http://www.w3.org/2000/svg">
<path d="M257.718 37.6121H27.418V86.9621H49.3513V333.712C49.3402 339.162 51.3632 344.419 55.0244 348.455C58.6856 352.492 63.7214 355.017 69.1461 355.536C69.859 355.591 70.6266 355.645 71.3395 355.645H279.651V59.5454C279.651 53.7283 277.34 48.1495 273.227 44.0362C269.114 39.9229 263.535 37.6121 257.718 37.6121Z" fill="#B0CCF9"/>
<path d="M49.3503 59.5454C49.3505 56.4832 48.7096 53.4548 47.4687 50.6553C46.2278 47.8558 44.4144 45.3471 42.1453 43.2908C39.8762 41.2345 37.2016 39.6762 34.2938 38.7161C31.386 37.756 28.3094 37.4154 25.262 37.7162C19.7369 38.404 14.6611 41.1097 11.0101 45.3133C7.35921 49.5169 5.39091 54.9216 5.4836 60.4885V81.4787C5.4836 82.933 6.06131 84.3277 7.08963 85.356C8.11796 86.3843 9.51266 86.962 10.9669 86.962H49.3503V59.5454Z" fill="#5B90F3"/>
<path d="M71.2852 355.645H301.585C307.402 355.645 312.981 353.335 317.094 349.221C321.208 345.108 323.519 339.529 323.519 333.712V306.295H93.2185V333.712C93.2185 339.529 90.9077 345.108 86.7944 349.221C82.6811 353.335 77.1022 355.645 71.2852 355.645Z" fill="#5B90F3"/>
<path d="M299.893 35.3097C299.893 38.7667 303.266 42.7122 302.258 45.8287C301.204 49.0544 296.121 50.2625 294.167 52.9484C293.994 53.199 293.833 53.4561 293.692 53.7388C292.24 56.5726 292.362 61.0449 289.888 62.8441C287.202 64.7976 282.395 62.812 279.163 63.8594C278.444 64.0907 277.756 64.5084 277.075 65.0032C274.768 66.6868 272.551 69.3342 269.891 69.3342C267.231 69.3342 265.007 66.6803 262.707 65.0032C262.026 64.5084 261.332 64.0907 260.618 63.8594C257.393 62.8056 252.58 64.7976 249.894 62.8441C247.42 61.0513 247.542 56.5726 246.09 53.7388C245.948 53.4561 245.788 53.199 245.614 52.9484C243.661 50.2625 238.572 49.0544 237.524 45.8287C236.515 42.7122 239.889 38.7667 239.889 35.3097C239.889 31.8526 236.515 27.9072 237.524 24.7907C238.578 21.5649 243.661 20.3569 245.614 17.6709C247.593 14.9528 247.176 9.75434 249.894 7.7752C252.58 5.82176 257.386 7.80732 260.618 6.75992C263.722 5.75107 266.427 1.28516 269.884 1.28516C273.342 1.28516 276.047 5.75107 279.163 6.76635C282.389 7.82018 287.202 5.82818 289.888 7.78162C292.606 9.75434 292.195 14.9528 294.167 17.6773C296.121 20.3633 301.21 21.5713 302.258 24.7971C303.266 27.9072 299.893 31.8526 299.893 35.3097Z" fill="#FFE36E"/>
<path d="M269.884 58.6545C282.777 58.6545 293.229 48.2027 293.229 35.3096C293.229 22.4166 282.777 11.9648 269.884 11.9648C256.991 11.9648 246.539 22.4166 246.539 35.3096C246.539 48.2027 256.991 58.6545 269.884 58.6545Z" fill="#FFAA39"/>
<path d="M271.702 22.4195L274.343 27.7721C274.639 28.3697 275.211 28.7874 275.866 28.8838L281.778 29.7449C283.442 29.989 284.104 32.026 282.902 33.2019L278.629 37.3723C278.154 37.8349 277.935 38.5096 278.045 39.1651L279.053 45.0511C279.336 46.7089 277.601 47.9684 276.11 47.1844L270.828 44.4085C270.237 44.1001 269.53 44.1001 268.946 44.4085L263.664 47.1844C262.179 47.9684 260.438 46.7025 260.721 45.0511L261.729 39.1651C261.845 38.5096 261.627 37.8349 261.145 37.3723L256.872 33.2019C255.67 32.0324 256.332 29.989 257.996 29.7449L263.908 28.8838C264.57 28.7874 265.135 28.3762 265.431 27.7721L268.072 22.4195C268.811 20.9094 270.957 20.9094 271.702 22.4195Z" fill="#FFFEEB"/>
<path d="M262.7 65.0033L256.602 80.6436L248.57 74.3014L238.359 73.5367L246.077 53.7389C247.529 56.5727 247.407 61.045 249.881 62.8442C252.567 64.7977 257.373 62.8121 260.605 63.8595C261.325 64.0908 262.013 64.5085 262.7 65.0033Z" fill="#3980E5"/>
<path d="M301.403 73.5367L291.193 74.3014L283.161 80.6436L277.062 65.0033C277.744 64.5085 278.438 64.0908 279.151 63.8595C282.377 62.8057 287.19 64.7977 289.876 62.8442C292.349 61.0514 292.227 56.5727 293.68 53.7389L301.403 73.5367Z" fill="#3980E5"/>
</svg>
