<svg width="24" height="24" viewBox="0 0 24 24" fill="none" xmlns="http://www.w3.org/2000/svg">
<g clip-path="url(#clip0_174_32722)">
<mask id="mask0_174_32722" style="mask-type:alpha" maskUnits="userSpaceOnUse" x="-2" y="-2" width="28" height="28">
<rect x="-2" y="-2" width="28" height="28" fill="#D9D9D9"/>
</mask>
<g mask="url(#mask0_174_32722)">
<path d="M10.8333 13.1663V16.6663C10.8333 16.9969 10.9451 17.274 11.1687 17.4976C11.3924 17.7212 11.6694 17.833 12 17.833C12.3306 17.833 12.6076 17.7212 12.8312 17.4976C13.0549 17.274 13.1667 16.9969 13.1667 16.6663V13.1663H16.6667C16.9972 13.1663 17.2743 13.0545 17.4979 12.8309C17.7215 12.6073 17.8333 12.3302 17.8333 11.9997C17.8333 11.6691 17.7215 11.392 17.4979 11.1684C17.2743 10.9448 16.9972 10.833 16.6667 10.833H13.1667V7.33301C13.1667 7.00245 13.0549 6.72537 12.8312 6.50176C12.6076 6.27815 12.3306 6.16634 12 6.16634C11.6694 6.16634 11.3924 6.27815 11.1687 6.50176C10.9451 6.72537 10.8333 7.00245 10.8333 7.33301V10.833H7.33333C7.00277 10.833 6.72569 10.9448 6.50208 11.1684C6.27847 11.392 6.16666 11.6691 6.16666 11.9997C6.16666 12.3302 6.27847 12.6073 6.50208 12.8309C6.72569 13.0545 7.00277 13.1663 7.33333 13.1663H10.8333ZM12 23.6663C10.3861 23.6663 8.86944 23.3601 7.44999 22.7476C6.03055 22.1351 4.79583 21.3038 3.74583 20.2538C2.69583 19.2038 1.86458 17.9691 1.25208 16.5497C0.639578 15.1302 0.333328 13.6136 0.333328 11.9997C0.333328 10.3858 0.639578 8.86912 1.25208 7.44967C1.86458 6.03023 2.69583 4.79551 3.74583 3.74551C4.79583 2.69551 6.03055 1.86426 7.44999 1.25176C8.86944 0.639258 10.3861 0.333008 12 0.333008C13.6139 0.333008 15.1306 0.639258 16.55 1.25176C17.9694 1.86426 19.2042 2.69551 20.2542 3.74551C21.3042 4.79551 22.1354 6.03023 22.7479 7.44967C23.3604 8.86912 23.6667 10.3858 23.6667 11.9997C23.6667 13.6136 23.3604 15.1302 22.7479 16.5497C22.1354 17.9691 21.3042 19.2038 20.2542 20.2538C19.2042 21.3038 17.9694 22.1351 16.55 22.7476C15.1306 23.3601 13.6139 23.6663 12 23.6663Z" fill="white"/>
</g>
</g>
<defs>
<clipPath id="clip0_174_32722">
<rect width="24" height="24" fill="white"/>
</clipPath>
</defs>
</svg>
