<svg width="24" height="24" viewBox="0 0 24 24" fill="none" xmlns="http://www.w3.org/2000/svg">
<g clip-path="url(#clip0_85_59705)">
<path d="M4.46253 21.8792L5.76136 21.4093C6.33128 21.203 6.95511 21.203 7.52503 21.4093L8.73402 21.8468C9.30394 22.053 9.92777 22.053 10.4977 21.8468L11.7067 21.4093C12.2766 21.203 12.9004 21.203 13.4703 21.4093L14.6793 21.8468C15.2493 22.053 15.8731 22.053 16.443 21.8468L17.652 21.4093C18.2219 21.203 18.8457 21.203 19.4157 21.4093L20.7145 21.8792C20.9442 21.9624 21.2055 21.8948 21.3563 21.7026C21.7782 21.1644 21.7559 20.321 21.0731 19.8858C18.6246 18.3003 15.7133 17.1175 12.5891 17.13C9.46527 17.1175 6.55355 18.2999 4.10511 19.8858C3.4223 20.3206 3.40003 21.1644 3.82191 21.7026C3.97269 21.8948 4.23402 21.9624 4.4637 21.8792H4.46253Z" fill="black"/>
<path d="M6.29612 5.74434C6.42815 4.64551 6.70042 3.5791 7.10784 2.56348C4.35784 3.7377 2.54847 6.43457 2.36605 9.23301C2.35433 9.42012 2.4223 9.61035 2.55237 9.76426C2.68714 9.92363 2.8219 10.0834 2.95667 10.2443C3.14495 10.4682 3.43714 10.5873 3.71409 10.5482C4.4473 10.4451 5.17855 10.3283 5.90667 10.1979C6.17464 10.1502 6.38206 9.95293 6.45003 9.68652C6.18831 8.38262 6.13792 7.06582 6.29651 5.74395L6.29612 5.74434Z" fill="black"/>
<path d="M16.5492 5.64497C15.0582 3.26997 12.1844 1.75747 9.20703 2.03208C11.0781 3.59067 12.4523 5.6356 13.1723 7.98599C13.359 8.18833 13.6348 8.26255 13.8934 8.17739C14.5961 7.94614 15.2949 7.70122 15.9891 7.44302C16.2508 7.34536 16.4516 7.10161 16.5109 6.81528C16.5531 6.60981 16.5957 6.40513 16.6387 6.20083C16.6797 6.00356 16.6492 5.80395 16.55 5.64497H16.5492Z" fill="black"/>
<path d="M12.4278 16.5328L10.5641 9.16523C10.9903 9.05234 11.4149 8.93516 11.8383 8.81289C12.1063 8.73516 12.311 8.50234 12.3696 8.21211C12.3782 8.1707 12.3864 8.1293 12.395 8.08789C11.6309 5.71406 10.1532 3.67188 8.15749 2.21484C8.15085 2.21641 8.14382 2.21797 8.13718 2.21992C8.13054 2.22148 8.1235 2.22344 8.11686 2.22539C7.05397 4.45586 6.72507 6.95547 7.18132 9.40664C7.20827 9.43906 7.23561 9.47188 7.26257 9.5043C7.45202 9.73203 7.74304 9.83945 8.01569 9.78008C8.44655 9.68633 8.87585 9.5875 9.30436 9.48438L11.1071 16.6113C11.5501 16.5629 11.9907 16.5371 12.4282 16.5332L12.4278 16.5328Z" fill="black"/>
<path d="M17.6297 9.94238C16.2875 9.94238 15.1992 11.0307 15.1992 12.3729C15.1992 13.715 16.2875 14.8033 17.6297 14.8033C18.9719 14.8033 20.0602 13.715 20.0602 12.3729C20.0602 11.0307 18.9719 9.94238 17.6297 9.94238Z" fill="black"/>
</g>
<defs>
<clipPath id="clip0_85_59705">
<rect width="20" height="20" fill="white" transform="translate(2 2)"/>
</clipPath>
</defs>
</svg>
