<svg width="40" height="40" viewBox="0 0 40 40" fill="none" xmlns="http://www.w3.org/2000/svg">
<g clip-path="url(#clip0_497_26558)">
<path d="M37.7638 28.3459V11.6542C37.7638 10.4722 37.1332 9.38006 36.1096 8.78904L21.6542 0.443262C20.6306 -0.147754 19.3695 -0.147754 18.3459 0.443262L3.89047 8.78912C2.86688 9.38014 2.23633 10.4722 2.23633 11.6543V28.3459C2.23633 29.5279 2.86688 30.6201 3.89047 31.2111L18.3459 39.5569C19.3695 40.1479 20.6306 40.1479 21.6542 39.5569L36.1095 31.211C37.1332 30.6201 37.7638 29.5279 37.7638 28.3459Z" fill="#C3DDFF"/>
<path d="M36.1096 31.2103C36.6233 30.9137 37.0377 30.4908 37.3233 29.9938L20 19.9922V39.9994C20.5712 39.9994 21.1423 39.8516 21.6541 39.5562L36.1096 31.2103Z" fill="#A4CCFF"/>
<path d="M18.3459 0.443203L3.89041 8.78906C2.86681 9.38008 2.23627 10.4722 2.23627 11.6541V28.3458C2.23627 29.5277 2.86689 30.6199 3.89041 31.2109L18.3458 39.5567C18.8577 39.8523 19.4288 40 20 40V0C19.4288 0 18.8577 0.147734 18.3459 0.443203Z" fill="#A4CCFF"/>
<path d="M20 20.0001L37.3205 10.0001C37.035 9.50537 36.6214 9.08459 36.1096 8.78912L21.6541 0.443262C20.6305 -0.147754 19.3694 -0.147754 18.3458 0.443262L3.89038 8.78912C3.37858 9.08459 2.96499 9.50537 2.67944 10.0001L20 20.0001Z" fill="#DBEAFF"/>
<path d="M18.3458 0.443203L3.89038 8.78906C3.37858 9.08453 2.96499 9.50531 2.67944 10L20 20V0C19.4288 0 18.8576 0.147734 18.3458 0.443203Z" fill="#C3DDFF"/>
<path d="M3.89039 31.2103C3.37672 30.9137 2.96203 30.4911 2.67633 29.9941L20 19.9922V39.9994C19.4288 39.9994 18.8577 39.8516 18.3459 39.5562L3.89039 31.2103Z" fill="#8BB3EA"/>
<circle cx="19.3333" cy="27.334" r="6" fill="#FCE202"/>
<path d="M21.1098 33.0697C25.2778 32.2343 30.6667 29.236 30.6667 21.4829C30.6667 14.4274 25.5022 9.72921 21.7887 7.57043C20.9647 7.0914 20 7.72138 20 8.67452V11.1125C20 13.035 19.1917 16.5441 16.9458 18.0037C15.7991 18.7489 14.5607 17.6336 14.4213 16.2731L14.3069 15.156C14.1739 13.8573 12.8512 13.069 11.8133 13.8608C9.94862 15.2832 8 17.7741 8 21.4829C8 30.9644 15.0519 33.3347 18.5778 33.3347C18.7829 33.3347 18.9984 33.3286 19.2228 33.3157C17.4817 33.1669 14.6667 32.0867 14.6667 28.5936C14.6667 25.8612 16.6601 24.0126 18.1747 23.1141C18.582 22.8724 19.0588 23.1862 19.0588 23.6599V24.4455C19.0588 25.0467 19.2913 25.9865 19.8448 26.6298C20.4712 27.3578 21.3906 26.5952 21.4647 25.6377C21.4881 25.3357 21.7919 25.1432 22.0534 25.2961C22.9085 25.7958 24 26.8634 24 28.5936C24 31.3243 22.4947 32.5804 21.1098 33.0697Z" fill="url(#paint0_linear_497_26558)"/>
<path d="M37.7674 28.3459V11.6542C37.7674 10.4722 37.1369 9.38006 36.1133 8.78904L21.6579 0.443262C20.6343 -0.147754 19.3731 -0.147754 18.3495 0.443262L3.89413 8.78912C2.87054 9.38014 2.23999 10.4722 2.23999 11.6543V28.3459C2.23999 29.5279 2.87054 30.6201 3.89413 31.2111L18.3495 39.5569C19.3731 40.1479 20.6343 40.1479 21.6579 39.5569L36.1132 31.211C37.1369 30.6201 37.7674 29.5279 37.7674 28.3459Z" fill="#C3DDFF" fill-opacity="0.6"/>
<path d="M4.968 10.0867C4.6605 9.90847 4.2655 10.0136 4.08659 10.323C3.90831 10.6317 4.01417 11.0261 4.32284 11.2044L19.9674 20.2367L20.6125 19.119L4.968 10.0867Z" fill="#DBEAFF"/>
<path d="M20.6452 38.3873C21.0018 38.3873 21.2903 38.0987 21.2903 37.7421V20.0499L36.6123 11.2041C36.921 11.0258 37.0268 10.6314 36.8485 10.3227C36.6702 10.0146 36.2752 9.90819 35.9671 10.0865L20.3226 19.1187C20.1229 19.2341 20 19.447 20 19.6776V37.7421C20 38.0987 20.2886 38.3873 20.6452 38.3873Z" fill="white"/>
</g>
<defs>
<linearGradient id="paint0_linear_497_26558" x1="19.3326" y1="33.3539" x2="19.3326" y2="7.42584" gradientUnits="userSpaceOnUse">
<stop stop-color="#FF4C0D"/>
<stop offset="1" stop-color="#FC9502"/>
</linearGradient>
<clipPath id="clip0_497_26558">
<rect width="40" height="40" fill="white"/>
</clipPath>
</defs>
</svg>
