<svg width="24" height="24" viewBox="0 0 24 24" fill="none" xmlns="http://www.w3.org/2000/svg">
<mask id="mask0_601_41631" style="mask-type:alpha" maskUnits="userSpaceOnUse" x="0" y="0" width="24" height="24">
<rect width="24" height="24" fill="#D9D9D9"/>
</mask>
<g mask="url(#mask0_601_41631)">
<path d="M14 22C12.6167 22 11.3167 21.7375 10.1 21.2125C8.88333 20.6875 7.825 19.975 6.925 19.075C6.025 18.175 5.3125 17.1167 4.7875 15.9C4.2625 14.6833 4 13.3833 4 12C4 10.6167 4.2625 9.31667 4.7875 8.1C5.3125 6.88333 6.025 5.825 6.925 4.925C7.825 4.025 8.88333 3.3125 10.1 2.7875C11.3167 2.2625 12.6167 2 14 2C14.5833 2 15.1667 2.05833 15.75 2.175C16.3333 2.29167 16.8917 2.46667 17.425 2.7C17.625 2.78333 17.775 2.9125 17.875 3.0875C17.975 3.2625 18.025 3.44167 18.025 3.625C18.025 3.775 17.9958 3.91667 17.9375 4.05C17.8792 4.18333 17.7833 4.3 17.65 4.4C16.4833 5.31667 15.5833 6.44167 14.95 7.775C14.3167 9.10833 14 10.5167 14 12C14 13.5 14.3083 14.9167 14.925 16.25C15.5417 17.5833 16.4417 18.7 17.625 19.6C17.7583 19.7 17.8542 19.8208 17.9125 19.9625C17.9708 20.1042 18 20.25 18 20.4C18 20.5833 17.95 20.7625 17.85 20.9375C17.75 21.1125 17.6 21.2417 17.4 21.325C16.8667 21.5583 16.3125 21.7292 15.7375 21.8375C15.1625 21.9458 14.5833 22 14 22Z" fill="#191919"/>
</g>
</svg>
