<svg width="40" height="40" viewBox="0 0 40 40" fill="none" xmlns="http://www.w3.org/2000/svg">
<g clip-path="url(#clip0_14031_60187)">
<path d="M29.9993 0H9.99976C4.50038 0 0 4.50038 0 9.99976V30.0002C0 35.4982 4.50038 40 9.99976 40H29.9993C35.4986 40 39.999 35.4982 39.999 30.0002V9.99976C39.999 4.50038 35.4986 0 29.9993 0ZM36.6656 30.0002C36.6656 33.6752 33.6762 36.6666 29.9993 36.6666H9.99976C6.32436 36.6666 3.33341 33.6752 3.33341 30.0002V9.99976C3.33341 6.32387 6.32436 3.33341 9.99976 3.33341H29.9993C33.6762 3.33341 36.6656 6.32387 36.6656 9.99976V30.0002Z" fill="black"/>
<path d="M30.8359 11.6659C32.2166 11.6659 33.3358 10.5466 33.3358 9.16595C33.3358 7.78528 32.2166 6.66602 30.8359 6.66602C29.4552 6.66602 28.3359 7.78528 28.3359 9.16595C28.3359 10.5466 29.4552 11.6659 30.8359 11.6659Z" fill="black"/>
<path d="M19.9998 10C14.4759 10 10 14.4764 10 19.9998C10 25.5211 14.4759 30.0005 19.9998 30.0005C25.5221 30.0005 29.9995 25.5211 29.9995 19.9998C29.9995 14.4764 25.5221 10 19.9998 10ZM19.9998 26.6671C16.3183 26.6671 13.3334 23.6822 13.3334 19.9998C13.3334 16.3173 16.3183 13.3334 19.9998 13.3334C23.6812 13.3334 26.6661 16.3173 26.6661 19.9998C26.6661 23.6822 23.6812 26.6671 19.9998 26.6671Z" fill="black"/>
</g>
<defs>
<clipPath id="clip0_14031_60187">
<rect width="40" height="40" fill="white"/>
</clipPath>
</defs>
</svg>
