<svg width="512" height="512" viewBox="0 0 512 512" fill="none" xmlns="http://www.w3.org/2000/svg">
<path d="M74.8385 447.059L138.04 483.562C159.279 495.831 182.09 501.967 204.891 501.968C227.698 501.969 250.496 495.834 271.741 483.562L415.507 400.578C421.884 396.894 426.449 390.924 428.364 383.768C430.28 376.612 429.306 369.16 425.623 362.785C417.214 348.207 404.001 337.678 388.42 333.142C372.539 328.518 355.75 330.62 341.147 339.061L300.48 362.535L426.056 145.023C431.61 135.392 433.073 124.141 430.18 113.339C427.283 102.525 420.379 93.5149 410.742 87.9659C401.132 82.4069 389.876 80.9359 379.063 83.8319C368.255 86.7259 359.238 93.6199 353.671 103.244L295.593 203.869C292.378 194.074 285.786 185.935 276.836 180.783C261.692 172.039 243.273 173.893 230.24 184.03C227.797 172.965 220.905 162.92 210.352 156.827C193.432 147.087 172.465 150.533 159.455 163.939C156.501 154.581 150.266 146.795 141.75 141.888C132.766 136.684 122.248 135.299 112.141 138C102.02 140.704 93.5755 147.164 88.3645 156.189L25.8805 264.404C-10.9765 328.278 10.9875 410.216 74.8385 447.06V447.059ZM431.931 51.2878C391.716 28.0779 340.113 41.9009 316.894 82.1069C312.217 90.1969 308.94 98.9399 307.154 108.093C305.568 116.224 297.694 121.531 289.559 119.944C281.428 118.358 276.122 110.481 277.708 102.349C280.131 89.9259 284.577 78.0629 290.918 67.0969C322.404 12.5749 392.39 -6.17315 446.931 25.3059C501.452 56.7919 520.201 126.778 488.734 181.296C482.4 192.308 474.348 202.091 464.803 210.376C461.964 212.84 458.463 214.048 454.977 214.048C450.782 214.048 446.608 212.297 443.642 208.88C438.212 202.623 438.882 193.149 445.139 187.719C452.149 181.635 458.068 174.441 462.74 166.32C485.95 126.106 472.127 74.5029 431.931 51.2889V51.2878Z" fill="black"/>
</svg>
