<svg width="40" height="40" viewBox="0 0 40 40" fill="none" xmlns="http://www.w3.org/2000/svg">
<g clip-path="url(#clip0_14031_60214)">
<path d="M19.9999 40C31.0278 40 39.9998 31.0281 39.9998 20.0001C39.9998 8.97207 31.0278 0 19.9999 0C8.97194 0 0 8.97207 0 20.0001C0 31.0281 8.97194 40 19.9999 40ZM6.9602 29.8742C8.54492 29.251 10.5402 28.7542 12.7828 28.4139C13.0873 30.2419 13.4914 31.9365 13.9896 33.4314C14.2506 34.2143 14.5254 34.9054 14.8092 35.5193C11.6574 34.4623 8.93098 32.4703 6.9602 29.8742ZM3.63634 20.0001C3.63634 17.6068 4.15294 15.3319 5.08009 13.281C7.0465 14.1228 9.53049 14.7741 12.3288 15.1946C12.1925 16.7474 12.1211 18.3586 12.1211 20.0001C12.1211 21.6416 12.1925 23.2528 12.3288 24.8055C9.53049 25.2261 7.04638 25.8774 5.08021 26.7192C4.15294 24.6683 3.63634 22.3934 3.63634 20.0001ZM19.9999 3.63634C20.3914 3.63634 21.5325 4.63403 22.5606 7.7185C22.9831 8.98637 23.3306 10.4243 23.5988 11.9813C22.4299 12.063 21.2246 12.1061 19.9994 12.1061C18.7746 12.1061 17.5696 12.0631 16.401 11.9813C16.6691 10.4243 17.0166 8.98649 17.4393 7.71862C18.4674 4.63403 19.6084 3.63634 19.9999 3.63634ZM19.9994 15.7425C21.3845 15.7425 22.7423 15.6915 24.0574 15.5944C24.1789 17.0132 24.2423 18.4903 24.2423 20.0001C24.2423 21.5099 24.1789 22.9868 24.0575 24.4055C22.7424 24.3085 21.3848 24.2575 19.9999 24.2575C18.6149 24.2575 17.2573 24.3085 15.9423 24.4055C15.8209 22.9868 15.7575 21.5098 15.7575 20.0001C15.7575 18.4903 15.8209 17.0134 15.9423 15.5944C17.2572 15.6915 18.6147 15.7425 19.9994 15.7425ZM36.3634 20.0001C36.3634 22.3933 35.8468 24.6681 34.9197 26.719C32.9533 25.8772 30.4693 25.226 27.671 24.8055C27.8072 23.2528 27.8786 21.6417 27.8786 20.0001C27.8786 18.3584 27.8072 16.7473 27.671 15.1945C30.4693 14.774 32.9533 14.1226 34.9194 13.2806C35.8468 15.3317 36.3634 17.6067 36.3634 20.0001ZM19.9999 36.3637C19.6084 36.3637 18.4674 35.3658 17.4394 32.2815C17.0167 31.0135 16.6692 29.5757 16.401 28.0187C17.5698 27.9369 18.7748 27.8939 19.9999 27.8939C21.225 27.8939 22.43 27.9369 23.5988 28.0187C23.3306 29.5757 22.9831 31.0136 22.5606 32.2815C21.5325 35.366 20.3915 36.3637 19.9999 36.3637ZM25.1908 35.5193C25.4745 34.9054 25.7493 34.2143 26.0103 33.4314C26.5086 31.9365 26.9127 30.2419 27.2172 28.4139C29.4596 28.7542 31.4548 29.2509 33.0396 29.8741C31.0689 32.4701 28.3426 34.4622 25.1908 35.5193ZM33.0393 10.1256C31.4548 10.7489 29.4596 11.2457 27.217 11.586C26.9126 9.75812 26.5086 8.06334 26.0103 6.56857C25.7494 5.78566 25.4745 5.09464 25.1906 4.48058C28.3424 5.53778 31.0687 7.52965 33.0393 10.1256ZM14.8092 4.4807C14.5254 5.09451 14.2507 5.78566 13.9896 6.56857C13.4914 8.06359 13.0873 9.75824 12.7828 11.5862C10.5402 11.2459 8.54492 10.7491 6.9602 10.126C8.93085 7.52989 11.6573 5.53766 14.8092 4.4807Z" fill="black"/>
</g>
<defs>
<clipPath id="clip0_14031_60214">
<rect width="40" height="40" fill="white"/>
</clipPath>
</defs>
</svg>
