<svg width="25" height="24" viewBox="0 0 25 24" fill="none" xmlns="http://www.w3.org/2000/svg">
<mask id="mask0_86_68496" style="mask-type:alpha" maskUnits="userSpaceOnUse" x="0" y="0" width="25" height="24">
<rect x="0.362305" width="24" height="24" fill="#D9D9D9"/>
</mask>
<g mask="url(#mask0_86_68496)">
<path d="M11.8373 14.475L8.21226 10.85C8.16226 10.8 8.12476 10.7458 8.09976 10.6875C8.07476 10.6292 8.06226 10.5667 8.06226 10.5C8.06226 10.3667 8.10809 10.25 8.19976 10.15C8.29142 10.05 8.41226 10 8.56226 10H16.1623C16.3123 10 16.4331 10.05 16.5248 10.15C16.6164 10.25 16.6623 10.3667 16.6623 10.5C16.6623 10.5333 16.6123 10.65 16.5123 10.85L12.8873 14.475C12.8039 14.5583 12.7206 14.6167 12.6373 14.65C12.5539 14.6833 12.4623 14.7 12.3623 14.7C12.2623 14.7 12.1706 14.6833 12.0873 14.65C12.0039 14.6167 11.9206 14.5583 11.8373 14.475Z" fill="#1C1B1F"/>
</g>
</svg>
