<svg width="24" height="24" viewBox="0 0 24 24" fill="none" xmlns="http://www.w3.org/2000/svg">
<g clip-path="url(#clip0_12019_81795)">
<path d="M21.5146 3.43676C20.5543 2.56261 18.933 3.27651 18.1612 4.04869C18.1612 4.04869 16.3513 5.76099 15.6005 6.4118C15.4228 6.56592 15.2464 6.51073 15.2464 6.51073L7.08433 5.07525C6.73344 5.02523 6.2417 5.18916 5.99144 5.4398L5.26288 6.16815C5.01208 6.41852 5.06604 6.75379 5.38254 6.91298L11.4054 10.0424C11.4054 10.0424 11.8699 10.2731 11.5899 10.5397C10.5971 11.4852 8.91235 13.1828 8.00018 14.1004C7.70118 14.4012 7.3066 14.356 7.3066 14.356L4.52535 14.0163C4.17163 13.9909 3.67782 14.1751 3.42702 14.4256L2.16571 15.6872C1.91523 15.9377 1.95294 16.3006 2.25018 16.4938L6.87241 17.5948C7.16966 17.7879 7.25072 17.8687 7.44371 18.1655L8.47267 22.7167C8.66587 23.0137 9.02887 23.0514 9.27935 22.8011L10.541 21.5392C10.7912 21.2889 10.9759 20.7949 10.951 20.4418L10.6211 17.7601C10.6211 17.7601 10.5722 17.419 10.7596 17.2291C11.6859 16.2905 13.5302 14.495 14.5016 13.5112C14.8029 13.2061 14.9305 13.5885 14.9305 13.5885L18.0385 19.5684C18.1975 19.8851 18.5331 19.9392 18.7836 19.6888L19.512 18.9599C19.7621 18.7094 19.9268 18.2176 19.8773 17.8671L18.4975 9.93735C18.4975 9.93735 18.4381 9.65983 18.6053 9.47916C19.2046 8.8316 20.9967 6.88359 20.9967 6.88359C21.7682 6.11173 22.5221 4.35373 21.5146 3.43676Z" fill="black"/>
</g>
<defs>
<clipPath id="clip0_12019_81795">
<rect width="20" height="20" fill="white" transform="translate(2 3)"/>
</clipPath>
</defs>
</svg>
