<svg width="24" height="24" viewBox="0 0 24 24" fill="none" xmlns="http://www.w3.org/2000/svg">
<mask id="mask0_12019_81839" style="mask-type:luminance" maskUnits="userSpaceOnUse" x="1" y="1" width="22" height="22">
<path d="M1 1.02539H22.9571V22.9825H1V1.02539Z" fill="white"/>
</mask>
<g mask="url(#mask0_12019_81839)">
<path d="M22.5975 6.43908C22.5471 6.33547 22.4727 6.24541 22.3805 6.17636C22.2883 6.10736 22.1809 6.06139 22.0673 6.04231C21.9537 6.02318 21.8372 6.03154 21.7275 6.06662C21.6178 6.1017 21.518 6.16247 21.4366 6.24395L19.243 8.43752C19.1535 8.52578 19.0329 8.57527 18.9072 8.57527C18.7815 8.57527 18.6609 8.52578 18.5714 8.43752L17.6074 7.47346C17.5192 7.38383 17.4698 7.26316 17.4698 7.13746C17.4698 7.01172 17.5192 6.89104 17.6074 6.80146L19.7894 4.61903C19.8728 4.53554 19.9346 4.43288 19.9692 4.32001C20.0039 4.20713 20.0103 4.0875 19.988 3.97156C19.9657 3.85561 19.9154 3.7469 19.8413 3.65493C19.7673 3.56296 19.6719 3.49053 19.5634 3.44398C17.8604 2.71493 15.7432 3.12448 14.4172 4.44277C13.2674 5.58395 12.9235 7.35896 13.4737 9.31881C13.4974 9.4029 13.4973 9.49193 13.4734 9.57599C13.4494 9.66004 13.4026 9.73582 13.3382 9.79483L5.92337 16.6843C5.67772 16.9053 5.47964 17.174 5.34116 17.474C5.20272 17.774 5.1268 18.0991 5.11804 18.4294C5.10928 18.7597 5.16786 19.0883 5.29021 19.3952C5.41256 19.7022 5.59611 19.981 5.82971 20.2147C6.0633 20.4484 6.34201 20.6321 6.6489 20.7546C6.95574 20.8771 7.28437 20.9358 7.61467 20.9273C7.94497 20.9186 8.27008 20.8429 8.57019 20.7046C8.87025 20.5663 9.13906 20.3683 9.36017 20.1228L16.3114 12.6951C16.3696 12.6321 16.4438 12.5862 16.5262 12.5622C16.6086 12.5382 16.6959 12.5372 16.7788 12.5592C18.7087 13.0738 20.467 12.7307 21.6004 11.6157C22.2523 10.9725 22.7073 10.0646 22.8822 9.05506C23.0465 8.10302 22.9427 7.14925 22.5975 6.43908Z" fill="black"/>
<path d="M19.756 17.2539C19.1582 16.7569 17.8811 15.6071 16.5795 14.4141L13.7461 17.4422C14.9572 18.7287 16.0533 19.9231 16.5336 20.4819L16.5366 20.4853C16.652 20.6174 16.7932 20.7244 16.9514 20.7999C17.1097 20.8755 17.2817 20.9178 17.4569 20.9244H17.5041C17.8411 20.9234 18.1642 20.7908 18.4047 20.5548L18.4077 20.5518L19.8413 19.1207C19.9659 18.9965 20.0631 18.8476 20.1267 18.6836C20.1904 18.5196 20.2192 18.3441 20.211 18.1683C20.203 17.9926 20.1583 17.8205 20.0799 17.6631C20.0014 17.5056 19.891 17.3662 19.7556 17.2539H19.756Z" fill="black"/>
<path d="M6.08356 10.2284C6.08424 10.0657 6.03973 9.90589 5.9549 9.76699C5.94302 9.7482 5.93667 9.72646 5.93659 9.7042C5.9365 9.68199 5.94268 9.6602 5.95439 9.64129C5.96609 9.62242 5.9829 9.6072 6.00289 9.59742C6.02283 9.58764 6.04513 9.5837 6.06726 9.58601H6.06983C6.10586 9.58987 6.29841 9.61775 6.57159 9.78371C6.77443 9.90679 7.35338 10.3018 8.36118 11.3078C8.35046 11.6505 8.45998 11.9861 8.67081 12.2565L11.5111 9.61689C11.2595 9.37871 10.9308 9.23869 10.5848 9.22235C10.5815 9.21883 10.5785 9.2151 10.5758 9.2112L10.5479 9.18161L9.49549 7.73038C9.3785 7.57153 9.30177 7.38666 9.27188 7.19161C9.24199 6.99662 9.25988 6.79724 9.32395 6.61065C9.42048 6.33271 9.59605 6.08904 9.82913 5.90948C10.0731 5.72036 10.6238 5.49264 11.0917 5.45404C11.3096 5.43603 11.529 5.44963 11.7431 5.49436C11.8456 5.5191 11.9467 5.54959 12.0459 5.5857C12.0759 5.59694 12.1067 5.60594 12.1381 5.61272C12.2742 5.64287 12.4163 5.63086 12.5454 5.57824C12.6745 5.52562 12.7846 5.43492 12.8608 5.31823C12.9371 5.20151 12.976 5.06434 12.9724 4.92495C12.9688 4.78557 12.9228 4.65061 12.8405 4.53802C12.8294 4.52302 12.7839 4.46126 12.7166 4.37806C12.591 4.21962 12.4533 4.07108 12.3049 3.93378C11.9554 3.61814 11.0496 3.08594 9.86044 3.08594C9.1799 3.08544 8.50566 3.2165 7.87486 3.4719C6.22936 4.13448 5.15295 5.04064 4.65806 5.52137L4.6542 5.52523C4.3212 5.85403 4.01288 6.20693 3.73174 6.58106C3.62546 6.73094 3.55637 6.90394 3.53018 7.08582C3.51794 7.16318 3.47726 7.23321 3.4161 7.28215C3.35494 7.33112 3.27771 7.35544 3.19954 7.35042C3.1841 7.35042 3.16823 7.35042 3.1528 7.35042C2.91901 7.34887 2.69409 7.43983 2.5271 7.60344L1.26414 8.83467L1.25042 8.84839C1.09155 9.01346 1.00195 9.23311 1.00003 9.46216C0.998117 9.69125 1.08404 9.91237 1.24012 10.08C1.24827 10.0886 1.25599 10.0968 1.26457 10.1049L3.30161 12.0918C3.46944 12.2562 3.6949 12.3486 3.92987 12.3491C4.16366 12.3506 4.38857 12.2597 4.55556 12.0961L5.81896 10.8614C5.90322 10.779 5.97004 10.6805 6.0155 10.5718C6.06096 10.4631 6.08411 10.3463 6.08356 10.2284Z" fill="black"/>
</g>
</svg>
