<svg width="24" height="24" viewBox="0 0 24 24" fill="none" xmlns="http://www.w3.org/2000/svg">
<path d="M15.6485 20.2422C14.8074 21.3113 13.4858 22 12.0001 22C10.5143 22 9.19269 21.3113 8.35161 20.2422C10.7734 20.5703 13.2267 20.5703 15.6485 20.2422Z" fill="#1C274C"/>
<path d="M12.0001 2C13.1132 2 14.1624 2.28137 15.0879 2.77637C14.7143 3.43236 14.5001 4.19104 14.5001 5C14.5001 7.40104 16.3806 9.36196 18.7491 9.49219V9.7041C18.7491 10.5491 18.9905 11.3751 19.4424 12.0781L20.5499 13.8008C21.5614 15.3745 20.7887 17.5141 19.0293 18.0117C14.4272 19.3134 9.57291 19.3134 4.97076 18.0117C3.21144 17.5141 2.43871 15.3745 3.45025 13.8008L4.55767 12.0781C5.00959 11.3751 5.25103 10.5491 5.25103 9.7041V9C5.25103 5.13403 8.27263 2.00003 12.0001 2Z" fill="#1C274C"/>
<path d="M22 5.00025C22 6.6571 20.6569 8.00025 19 8.00025C17.3431 8.00025 16 6.6571 16 5.00025C16 3.34339 17.3431 2.00025 19 2.00025C20.6569 2.00025 22 3.34339 22 5.00025Z" fill="#1C274C"/>
</svg>
