<svg width="25" height="25" viewBox="0 0 25 25" fill="none" xmlns="http://www.w3.org/2000/svg">
<mask id="mask0_472_42910" style="mask-type:alpha" maskUnits="userSpaceOnUse" x="0" y="0" width="25" height="25">
<rect x="0.166992" y="0.1875" width="24" height="24" fill="#D9D9D9"/>
</mask>
<g mask="url(#mask0_472_42910)">
<path d="M8.36694 14.1873C8.21694 14.1873 8.09611 14.1373 8.00444 14.0373C7.91278 13.9373 7.86694 13.8206 7.86694 13.6873C7.86694 13.654 7.91694 13.5373 8.01694 13.3373L11.6419 9.7123C11.7253 9.62897 11.8086 9.57064 11.8919 9.5373C11.9753 9.50397 12.0669 9.4873 12.1669 9.4873C12.2669 9.4873 12.3586 9.50397 12.4419 9.5373C12.5253 9.57064 12.6086 9.62897 12.6919 9.7123L16.3169 13.3373C16.3669 13.3873 16.4044 13.4415 16.4294 13.4998C16.4544 13.5581 16.4669 13.6206 16.4669 13.6873C16.4669 13.8206 16.4211 13.9373 16.3294 14.0373C16.2378 14.1373 16.1169 14.1873 15.9669 14.1873H8.36694Z" fill="#1C1B1F"/>
</g>
</svg>
