<svg width="24" height="24" viewBox="0 0 24 24" fill="none" xmlns="http://www.w3.org/2000/svg">
<path d="M11.999 1.25C13.4614 1.25002 14.829 1.65535 15.9961 2.35938C15.6662 2.73432 15.4042 3.17084 15.2324 3.65039C14.2891 3.07897 13.1825 2.75002 11.999 2.75C8.54724 2.75 5.74902 5.54822 5.74902 9V9.7041C5.74902 10.6971 5.45507 11.6679 4.9043 12.4941L3.75586 14.2168C2.99069 15.3646 3.57444 16.9251 4.90527 17.2881C9.54953 18.5547 14.4485 18.5547 19.0928 17.2881C20.4234 16.925 21.0073 15.3645 20.2422 14.2168L19.0938 12.4941C18.5429 11.6679 18.249 10.6971 18.249 9.7041V9C18.249 8.97587 18.2473 8.9518 18.2471 8.92773C18.491 8.9742 18.7426 9 19 9C19.2554 8.99999 19.505 8.97448 19.7471 8.92871C19.7473 8.95245 19.749 8.97621 19.749 9V9.7041C19.749 10.401 19.9552 11.0823 20.3418 11.6621L21.4902 13.3848C22.8233 15.3844 21.8058 18.103 19.4873 18.7354C18.7317 18.9414 17.9695 19.1153 17.2031 19.2578L17.2012 19.2637C16.4321 21.3153 14.3768 22.7499 11.999 22.75C9.62123 22.75 7.56602 21.3153 6.79688 19.2637L6.79492 19.2578C6.02857 19.1153 5.2663 18.9414 4.51074 18.7354C2.19215 18.103 1.17472 15.3844 2.50781 13.3848L3.65625 11.6621C4.04275 11.0823 4.24902 10.4009 4.24902 9.7041V9C4.24902 4.71979 7.71882 1.25 11.999 1.25ZM15.375 19.5371C13.1322 19.8051 10.8649 19.8051 8.62207 19.5371C9.33302 20.5586 10.5701 21.25 11.999 21.25C13.4278 21.2499 14.664 20.5585 15.375 19.5371Z" fill="#1C274C"/>
<circle cx="19" cy="5" r="3.25" stroke="#1C274C" stroke-width="1.5"/>
</svg>
