<svg width="24" height="24" viewBox="0 0 24 24" fill="none" xmlns="http://www.w3.org/2000/svg">
<g clip-path="url(#clip0_6035_46792)">
<path d="M23.9361 9.205C23.779 8.71902 23.3479 8.37386 22.838 8.3279L15.9109 7.69891L13.1718 1.28768C12.9698 0.817818 12.5098 0.513672 11.9988 0.513672C11.4877 0.513672 11.0277 0.817818 10.8258 1.28878L8.08663 7.69891L1.15847 8.3279C0.649428 8.37496 0.219485 8.71902 0.061461 9.205C-0.0965631 9.69097 0.0493757 10.224 0.434456 10.56L5.67049 15.152L4.12651 21.9533C4.01353 22.4534 4.20762 22.9703 4.62255 23.2702C4.84558 23.4314 5.10651 23.5134 5.36964 23.5134C5.59652 23.5134 5.82156 23.4522 6.02353 23.3314L11.9988 19.7602L17.9718 23.3314C18.4089 23.5943 18.9599 23.5704 19.3739 23.2702C19.789 22.9694 19.9829 22.4523 19.87 21.9533L18.326 15.152L23.562 10.5609C23.9471 10.224 24.0941 9.69189 23.9361 9.205Z" fill="#FFC107"/>
</g>
<defs>
<clipPath id="clip0_6035_46792">
<rect width="24" height="24" fill="white"/>
</clipPath>
</defs>
</svg>
