<svg width="24" height="25" viewBox="0 0 24 25" fill="none" xmlns="http://www.w3.org/2000/svg">
<mask id="mask0_194_15977" style="mask-type:alpha" maskUnits="userSpaceOnUse" x="0" y="0" width="25" height="25">
<rect x="0.00292969" y="0.160156" width="24" height="24" fill="#D9D9D9"/>
</mask>
<g mask="url(#mask0_194_15977)">
<path d="M12.0027 13.56L7.10273 18.46C6.9194 18.6433 6.68607 18.735 6.40273 18.735C6.1194 18.735 5.88607 18.6433 5.70273 18.46C5.5194 18.2766 5.42773 18.0433 5.42773 17.76C5.42773 17.4766 5.5194 17.2433 5.70273 17.06L10.6027 12.16L5.70273 7.25996C5.5194 7.07663 5.42773 6.84329 5.42773 6.55996C5.42773 6.27663 5.5194 6.04329 5.70273 5.85996C5.88607 5.67663 6.1194 5.58496 6.40273 5.58496C6.68607 5.58496 6.9194 5.67663 7.10273 5.85996L12.0027 10.76L16.9027 5.85996C17.0861 5.67663 17.3194 5.58496 17.6027 5.58496C17.8861 5.58496 18.1194 5.67663 18.3027 5.85996C18.4861 6.04329 18.5777 6.27663 18.5777 6.55996C18.5777 6.84329 18.4861 7.07663 18.3027 7.25996L13.4027 12.16L18.3027 17.06C18.4861 17.2433 18.5777 17.4766 18.5777 17.76C18.5777 18.0433 18.4861 18.2766 18.3027 18.46C18.1194 18.6433 17.8861 18.735 17.6027 18.735C17.3194 18.735 17.0861 18.6433 16.9027 18.46L12.0027 13.56Z" fill="#1C1B1F"/>
</g>
</svg>
