<svg width="305" height="305" viewBox="0 0 305 305" fill="none" xmlns="http://www.w3.org/2000/svg">
<g clip-path="url(#clip0_6080_44869)">
<g clip-path="url(#clip1_6080_44869)">
<rect x="29.7832" y="100.671" width="246.621" height="246.621" rx="123.311" fill="#A4B9FF"/>
<path d="M88.8255 216.635C96.7799 216.635 103.228 212.351 103.228 207.066C103.228 201.782 96.7799 197.498 88.8255 197.498C80.8711 197.498 74.4229 201.782 74.4229 207.066C74.4229 212.351 80.8711 216.635 88.8255 216.635Z" fill="#FF5E7F"/>
<path d="M217.366 217.128C225.32 217.128 231.768 212.844 231.768 207.559C231.768 202.274 225.32 197.99 217.366 197.99C209.411 197.99 202.963 202.274 202.963 207.559C202.963 212.844 209.411 217.128 217.366 217.128Z" fill="#FF5E7F"/>
<path d="M140.172 176.93C129.617 171.455 117.631 169.926 106.089 172.984C104.166 173.526 102.982 175.499 103.525 177.423C104.067 179.347 106.04 180.53 107.964 179.988C113.636 178.459 119.456 178.262 125.079 179.248C118.371 181.517 112.206 185.266 107.027 190.445C105.596 191.875 105.596 194.193 107.027 195.574C107.766 196.314 108.654 196.61 109.591 196.61C110.529 196.61 111.466 196.265 112.156 195.574C119.456 188.274 129.124 184.23 139.383 184.082C141.504 184.082 143.083 182.454 143.033 180.432C142.984 178.705 141.899 177.867 140.172 176.93Z" fill="black"/>
<path d="M200.051 172.983C188.559 169.876 176.573 171.454 165.968 176.929C164.193 177.817 163.108 178.705 163.108 180.431C163.058 182.454 164.686 184.081 166.708 184.131C176.968 184.279 186.635 188.372 193.935 195.623C194.675 196.363 195.563 196.659 196.5 196.659C197.437 196.659 198.374 196.314 199.114 195.623C200.545 194.193 200.545 191.874 199.114 190.493C193.984 185.364 187.77 181.566 181.062 179.297C186.685 178.261 192.505 178.508 198.177 180.037C200.101 180.579 202.123 179.395 202.616 177.472C203.109 175.499 201.975 173.526 200.051 172.983Z" fill="black"/>
</g>
<path d="M185.324 34.3402C182.668 30.8501 178.915 28.3542 174.67 27.2534C170.424 26.1526 165.931 26.5109 161.914 28.2708C158.318 29.8225 155.111 32.4388 152.51 35.9107C149.909 32.4303 146.702 29.814 143.106 28.2708C139.089 26.5109 134.596 26.1526 130.35 27.2534C126.105 28.3542 122.352 30.8501 119.696 34.3402C116.895 38.0108 115.414 42.5981 115.414 47.6048C115.414 54.8101 119.711 62.7148 128.185 71.1085C135.089 77.9454 143.249 83.5445 147.497 86.2728C148.993 87.2307 150.733 87.7398 152.51 87.7398C154.287 87.7398 156.027 87.2307 157.523 86.2728C161.768 83.5445 169.931 77.9454 176.835 71.1085C185.309 62.7182 189.606 54.8101 189.606 47.6048C189.606 42.5981 188.125 38.0108 185.324 34.3402Z" fill="#F9595F"/>
</g>
<path fill-rule="evenodd" clip-rule="evenodd" d="M138.512 234.013C134.059 230.229 131.982 223.146 133.485 217.538C133.876 216.073 134.539 214.214 135.482 213.006C137.673 210.192 141.156 208.67 144.682 209.416C146.734 209.853 148.643 210.635 150.26 211.971C152.473 213.799 153.918 212.537 155.852 211.035C157.683 209.611 159.522 208.212 161.921 208.023C165.83 207.716 169.535 210.573 171.321 213.78C173.978 218.55 173.258 224.582 170.724 229.248C170.5 229.661 168.243 233.462 168.056 233.384C158.116 229.362 148.262 229.28 138.512 234.013Z" fill="#074785"/>
<path fill-rule="evenodd" clip-rule="evenodd" d="M138.513 234.013C148.824 225.394 157.055 225.221 168.054 233.384C159.154 242.965 148.092 243.202 138.513 234.013Z" fill="#FD6085"/>
<defs>
<clipPath id="clip0_6080_44869">
<rect width="305" height="305" rx="152.5" fill="white"/>
</clipPath>
<clipPath id="clip1_6080_44869">
<rect width="246.621" height="246.621" fill="white" transform="translate(29.7852 100.674)"/>
</clipPath>
</defs>
</svg>
